<?xml version="1.0" encoding="UTF-8"?>
<svg xmlns="http://www.w3.org/2000/svg" version="1.1" width="128" height="128" viewBox="0 0 128 128">
  <defs>
    <linearGradient id="lightBeam" x1="0%" y1="0%" x2="100%" y2="100%">
      <stop offset="0%" style="stop-color:#d500f9;stop-opacity:0.8" />
      <stop offset="100%" style="stop-color:#aa00ff;stop-opacity:0.4" />
    </linearGradient>
    <filter id="glow" x="-20%" y="-20%" width="140%" height="140%">
      <feGaussianBlur stdDeviation="3" result="blur" />
      <feComposite in="SourceGraphic" in2="blur" operator="over" />
    </filter>
  </defs>
  
  <!-- 背景圆 -->
  <circle cx="64" cy="64" r="60" fill="#9c27b0" opacity="0.2" />
  
  <!-- 电影摄像机主体 -->
  <path d="M40,45 C40,42 42,40 45,40 L83,40 C86,40 88,42 88,45 L88,83 C88,86 86,88 83,88 L45,88 C42,88 40,86 40,83 Z" 
        fill="#ce93d8" stroke="#7b1fa2" stroke-width="3" stroke-linejoin="round" />
  
  <!-- 镜头 -->
  <circle cx="64" cy="58" r="15" fill="#4a148c" stroke="#7b1fa2" stroke-width="2" />
  <circle cx="64" cy="58" r="10" fill="#7b1fa2" />
  <circle cx="64" cy="58" r="5" fill="#e1bee7" />
  <circle cx="61" cy="55" r="2" fill="white" opacity="0.8" />
  
  <!-- 胶片导轨 -->
  <rect x="43" y="75" width="42" height="8" rx="2" fill="#4a148c" />
  <circle cx="48" cy="79" r="2" fill="#e1bee7" />
  <circle cx="58" cy="79" r="2" fill="#e1bee7" />
  <circle cx="68" cy="79" r="2" fill="#e1bee7" />
  <circle cx="78" cy="79" r="2" fill="#e1bee7" />
  
  <!-- 投影仪光束 -->
  <path d="M88,58 L108,48 L108,68 Z" fill="url(#lightBeam)" stroke="#7b1fa2" stroke-width="2" />
  
  <!-- 光束射线 -->
  <path d="M108,58 L120,48" stroke="#e1bee7" stroke-width="2" stroke-linecap="round" filter="url(#glow)" />
  <path d="M108,58 L120,58" stroke="#e1bee7" stroke-width="2" stroke-linecap="round" filter="url(#glow)" />
  <path d="M108,58 L120,68" stroke="#e1bee7" stroke-width="2" stroke-linecap="round" filter="url(#glow)" />
  
  <!-- 顶部旋钮 -->
  <circle cx="52" cy="40" r="5" fill="#4a148c" stroke="#7b1fa2" stroke-width="2" />
  <circle cx="76" cy="40" r="5" fill="#4a148c" stroke="#7b1fa2" stroke-width="2" />
  
  <!-- 摄像机把手 -->
  <path d="M34,60 C30,60 30,50 34,50 L40,50 L40,70 L34,70 C30,70 30,60 34,60 Z" 
        fill="#4a148c" stroke="#7b1fa2" stroke-width="2" />
</svg> 